<svg viewBox="0 0 32 32" xmlns="http://www.w3.org/2000/svg"><path d="M 15.59,18.39 L 15.60,18.44 L 15.61,18.48 L 15.63,18.53 L 15.66,18.57 L 15.69,18.62 L 15.72,18.66 L 15.76,18.70 L 15.80,18.74 L 15.85,18.77 L 15.91,18.80 L 15.96,18.82 L 16.02,18.84 L 16.09,18.86 L 16.16,18.87 L 16.23,18.87 L 16.30,18.86 L 16.38,18.85 L 16.45,18.83 L 16.53,18.80 L 16.60,18.76 L 16.67,18.71 L 16.74,18.66 L 16.80,18.60 L 16.86,18.52 L 16.92,18.45 L 16.97,18.36 L 17.01,18.27 L 17.04,18.17 L 17.06,18.06 L 17.08,17.95 L 17.08,17.84 L 17.07,17.72 L 17.05,17.60 L 17.02,17.48 L 16.97,17.36 L 16.91,17.24 L 16.84,17.12 L 16.75,17.01 L 16.65,16.91 L 16.53,16.81 L 16.41,16.72 L 16.27,16.64 L 16.12,16.57 L 15.96,16.52 L 15.79,16.48 L 15.61,16.46 L 15.43,16.45 L 15.24,16.47 L 15.04,16.50 L 14.85,16.55 L 14.65,16.63 L 14.46,16.72 L 14.27,16.84 L 14.09,16.98 L 13.92,17.14 L 13.76,17.32 L 13.61,17.52 L 13.49,17.75 L 13.38,17.99 L 13.29,18.25 L 13.22,18.52 L 13.18,18.81 L 13.17,19.11 L 13.19,19.41 L 13.24,19.73 L 13.33,20.04 L 13.44,20.36 L 13.60,20.67 L 13.78,20.98 L 14.01,21.27 L 14.26,21.55 L 14.56,21.81 L 14.88,22.04 L 15.24,22.26 L 15.63,22.43 L 16.05,22.58 L 16.49,22.69 L 16.95,22.75 L 17.43,22.77 L 17.93,22.74 L 18.44,22.67 L 18.95,22.54 L 19.46,22.35 L 19.96,22.11 L 20.46,21.81 L 20.93,21.45 L 21.39,21.04 L 21.81,20.57 L 22.20,20.05 L 22.54,19.47" fill="none" stroke="#E4CBA0" stroke-width="0.16" stroke-opacity="0.30"/><polygon points="8.34,14.95 6.78,14.25 4.75,15.84 5.06,17.53" fill="#A86744" stroke="#F7EEE1" stroke-width="0.06" stroke-opacity="0.4"/><polygon points="6.78,14.25 4.52,12.16 3.26,13.15 4.75,15.84" fill="#351F10" stroke="#F7EEE1" stroke-width="0.06" stroke-opacity="0.4"/><polygon points="4.52,12.16 1.46,8.77 0.69,9.37 3.26,13.15" fill="#804F34" stroke="#F7EEE1" stroke-width="0.06" stroke-opacity="0.4"/><polygon points="15.00,18.70 17.01,18.10 16.28,17.03" fill="#9F5527" stroke="#F7EEE1" stroke-width="0.06" stroke-opacity="0.45"/><polygon points="15.00,18.70 16.28,17.03 15.05,16.60" fill="#362010" stroke="#F7EEE1" stroke-width="0.06" stroke-opacity="0.45"/><polygon points="15.00,18.70 15.05,16.60 13.81,16.97" fill="#382111" stroke="#F7EEE1" stroke-width="0.06" stroke-opacity="0.45"/><polygon points="15.00,18.70 13.81,16.97 13.02,18.00" fill="#382111" stroke="#F7EEE1" stroke-width="0.06" stroke-opacity="0.45"/><polygon points="15.00,18.70 13.02,18.00 12.99,19.30" fill="#A85929" stroke="#F7EEE1" stroke-width="0.06" stroke-opacity="0.45"/><polygon points="15.00,18.70 12.99,19.30 13.72,20.37" fill="#E3D0B5" stroke="#F7EEE1" stroke-width="0.06" stroke-opacity="0.45"/><polygon points="15.00,18.70 13.72,20.37 14.95,20.80" fill="#DFC9AA" stroke="#F7EEE1" stroke-width="0.06" stroke-opacity="0.45"/><polygon points="15.00,18.70 14.95,20.80 16.19,20.43" fill="#DCC3A1" stroke="#F7EEE1" stroke-width="0.06" stroke-opacity="0.45"/><polygon points="15.00,18.70 16.19,20.43 16.98,19.40" fill="#DBC29F" stroke="#F7EEE1" stroke-width="0.06" stroke-opacity="0.45"/><polygon points="15.00,18.70 16.98,19.40 17.01,18.10" fill="#BB9662" stroke="#F7EEE1" stroke-width="0.06" stroke-opacity="0.45"/><polygon points="17.01,18.10 18.13,17.37 16.28,17.03" fill="#9A5225" stroke="#F7EEE1" stroke-width="0.06" stroke-opacity="0.45"/><polygon points="16.28,17.03 18.13,17.37 16.75,15.79" fill="#9E5426" stroke="#F7EEE1" stroke-width="0.06" stroke-opacity="0.45"/><polygon points="16.28,17.03 16.75,15.79 15.05,16.60" fill="#92592F" stroke="#F7EEE1" stroke-width="0.06" stroke-opacity="0.45"/><polygon points="15.05,16.60 16.75,15.79 14.70,15.31" fill="#965C31" stroke="#F7EEE1" stroke-width="0.06" stroke-opacity="0.45"/><polygon points="15.05,16.60 14.70,15.31 13.81,16.97" fill="#9A5E32" stroke="#F7EEE1" stroke-width="0.06" stroke-opacity="0.45"/><polygon points="13.81,16.97 14.70,15.31 12.77,16.13" fill="#9D6133" stroke="#F7EEE1" stroke-width="0.06" stroke-opacity="0.45"/><polygon points="13.81,16.97 12.77,16.13 13.02,18.00" fill="#9C6033" stroke="#F7EEE1" stroke-width="0.06" stroke-opacity="0.45"/><polygon points="13.02,18.00 12.77,16.13 11.69,17.94" fill="#9E6133" stroke="#F7EEE1" stroke-width="0.06" stroke-opacity="0.45"/><polygon points="13.02,18.00 11.69,17.94 12.99,19.30" fill="#AE5D2A" stroke="#F7EEE1" stroke-width="0.06" stroke-opacity="0.45"/><polygon points="12.99,19.30 11.69,17.94 11.87,20.03" fill="#AC5B2A" stroke="#F7EEE1" stroke-width="0.06" stroke-opacity="0.45"/><polygon points="12.99,19.30 11.87,20.03 13.72,20.37" fill="#E4D2B8" stroke="#F7EEE1" stroke-width="0.06" stroke-opacity="0.45"/><polygon points="13.72,20.37 11.87,20.03 13.25,21.61" fill="#E1CCAE" stroke="#F7EEE1" stroke-width="0.06" stroke-opacity="0.45"/><polygon points="13.72,20.37 13.25,21.61 14.95,20.80" fill="#DCC4A3" stroke="#F7EEE1" stroke-width="0.06" stroke-opacity="0.45"/><polygon points="14.95,20.80 13.25,21.61 15.30,22.09" fill="#D8BD97" stroke="#F7EEE1" stroke-width="0.06" stroke-opacity="0.45"/><polygon points="14.95,20.80 15.30,22.09 16.19,20.43" fill="#D6BA93" stroke="#F7EEE1" stroke-width="0.06" stroke-opacity="0.45"/><polygon points="16.19,20.43 15.30,22.09 17.23,21.27" fill="#D2B388" stroke="#F7EEE1" stroke-width="0.06" stroke-opacity="0.45"/><polygon points="16.19,20.43 17.23,21.27 16.98,19.40" fill="#D4B68D" stroke="#F7EEE1" stroke-width="0.06" stroke-opacity="0.45"/><polygon points="16.98,19.40 17.23,21.27 18.31,19.46" fill="#D2B388" stroke="#F7EEE1" stroke-width="0.06" stroke-opacity="0.45"/><polygon points="16.98,19.40 18.31,19.46 17.01,18.10" fill="#B68E57" stroke="#F7EEE1" stroke-width="0.06" stroke-opacity="0.45"/><polygon points="17.01,18.10 18.31,19.46 18.13,17.37" fill="#B78F58" stroke="#F7EEE1" stroke-width="0.06" stroke-opacity="0.45"/><polygon points="18.13,17.37 19.79,15.99 16.75,15.79" fill="#975025" stroke="#F7EEE1" stroke-width="0.06" stroke-opacity="0.45"/><polygon points="16.75,15.79 19.79,15.99 17.28,13.69" fill="#9D5326" stroke="#F7EEE1" stroke-width="0.06" stroke-opacity="0.45"/><polygon points="16.75,15.79 17.28,13.69 14.70,15.31" fill="#382111" stroke="#F7EEE1" stroke-width="0.06" stroke-opacity="0.45"/><polygon points="14.70,15.31 17.28,13.69 13.90,13.31" fill="#3A2211" stroke="#F7EEE1" stroke-width="0.06" stroke-opacity="0.45"/><polygon points="14.70,15.31 13.90,13.31 12.77,16.13" fill="#3C2312" stroke="#F7EEE1" stroke-width="0.06" stroke-opacity="0.45"/><polygon points="12.77,16.13 13.90,13.31 10.94,14.98" fill="#3E2412" stroke="#F7EEE1" stroke-width="0.06" stroke-opacity="0.45"/><polygon points="12.77,16.13 10.94,14.98 11.69,17.94" fill="#3D2412" stroke="#F7EEE1" stroke-width="0.06" stroke-opacity="0.45"/><polygon points="11.69,17.94 10.94,14.98 9.53,18.08" fill="#3D2412" stroke="#F7EEE1" stroke-width="0.06" stroke-opacity="0.45"/><polygon points="11.69,17.94 9.53,18.08 11.87,20.03" fill="#B15E2B" stroke="#F7EEE1" stroke-width="0.06" stroke-opacity="0.45"/><polygon points="11.87,20.03 9.53,18.08 10.21,21.41" fill="#AC5B2A" stroke="#F7EEE1" stroke-width="0.06" stroke-opacity="0.45"/><polygon points="11.87,20.03 10.21,21.41 13.25,21.61" fill="#E2CDB1" stroke="#F7EEE1" stroke-width="0.06" stroke-opacity="0.45"/><polygon points="13.25,21.61 10.21,21.41 12.72,23.71" fill="#DBC19E" stroke="#F7EEE1" stroke-width="0.06" stroke-opacity="0.45"/><polygon points="13.25,21.61 12.72,23.71 15.30,22.09" fill="#D5B88F" stroke="#F7EEE1" stroke-width="0.06" stroke-opacity="0.45"/><polygon points="15.30,22.09 12.72,23.71 16.10,24.09" fill="#CDAA7A" stroke="#F7EEE1" stroke-width="0.06" stroke-opacity="0.45"/><polygon points="15.30,22.09 16.10,24.09 17.23,21.27" fill="#CCA877" stroke="#F7EEE1" stroke-width="0.06" stroke-opacity="0.45"/><polygon points="17.23,21.27 16.10,24.09 19.06,22.42" fill="#C69D66" stroke="#F7EEE1" stroke-width="0.06" stroke-opacity="0.45"/><polygon points="17.23,21.27 19.06,22.42 18.31,19.46" fill="#CAA572" stroke="#F7EEE1" stroke-width="0.06" stroke-opacity="0.45"/><polygon points="18.31,19.46 19.06,22.42 20.47,19.32" fill="#C7A069" stroke="#F7EEE1" stroke-width="0.06" stroke-opacity="0.45"/><polygon points="18.31,19.46 20.47,19.32 18.13,17.37" fill="#AE854B" stroke="#F7EEE1" stroke-width="0.06" stroke-opacity="0.45"/><polygon points="18.13,17.37 20.47,19.32 19.79,15.99" fill="#B0864C" stroke="#F7EEE1" stroke-width="0.06" stroke-opacity="0.45"/><polygon points="19.79,15.99 23.90,18.70 17.28,13.69" fill="#854720" stroke="#F7EEE1" stroke-width="0.06" stroke-opacity="0.45"/><polygon points="17.28,13.69 23.90,18.70 22.20,13.47" fill="#7E431E" stroke="#F7EEE1" stroke-width="0.06" stroke-opacity="0.45"/><polygon points="17.28,13.69 22.20,13.47 13.90,13.31" fill="#8D572E" stroke="#F7EEE1" stroke-width="0.06" stroke-opacity="0.45"/><polygon points="13.90,13.31 22.20,13.47 17.75,10.24" fill="#8B562D" stroke="#F7EEE1" stroke-width="0.06" stroke-opacity="0.45"/><polygon points="13.90,13.31 17.75,10.24 10.94,14.98" fill="#A16335" stroke="#F7EEE1" stroke-width="0.06" stroke-opacity="0.45"/><polygon points="10.94,14.98 17.75,10.24 12.25,10.24" fill="#A26435" stroke="#F7EEE1" stroke-width="0.06" stroke-opacity="0.45"/><polygon points="10.94,14.98 12.25,10.24 9.53,18.08" fill="#A96837" stroke="#F7EEE1" stroke-width="0.06" stroke-opacity="0.45"/><polygon points="9.53,18.08 12.25,10.24 7.80,13.47" fill="#AA6837" stroke="#F7EEE1" stroke-width="0.06" stroke-opacity="0.45"/><polygon points="9.53,18.08 7.80,13.47 10.21,21.41" fill="#B9622D" stroke="#F7EEE1" stroke-width="0.06" stroke-opacity="0.45"/><polygon points="10.21,21.41 7.80,13.47 6.10,18.70" fill="#B7612C" stroke="#F7EEE1" stroke-width="0.06" stroke-opacity="0.45"/><polygon points="10.21,21.41 6.10,18.70 12.72,23.71" fill="#E3CFB5" stroke="#F7EEE1" stroke-width="0.06" stroke-opacity="0.45"/><polygon points="12.72,23.71 6.10,18.70 7.80,23.93" fill="#DEC7A7" stroke="#F7EEE1" stroke-width="0.06" stroke-opacity="0.45"/><polygon points="12.72,23.71 7.80,23.93 16.10,24.09" fill="#D0AF82" stroke="#F7EEE1" stroke-width="0.06" stroke-opacity="0.45"/><polygon points="16.10,24.09 7.80,23.93 12.25,27.16" fill="#C7A16B" stroke="#F7EEE1" stroke-width="0.06" stroke-opacity="0.45"/><polygon points="16.10,24.09 12.25,27.16 19.06,22.42" fill="#C09558" stroke="#F7EEE1" stroke-width="0.06" stroke-opacity="0.45"/><polygon points="19.06,22.42 12.25,27.16 17.75,27.16" fill="#BD8F4E" stroke="#F7EEE1" stroke-width="0.06" stroke-opacity="0.45"/><polygon points="19.06,22.42 17.75,27.16 20.47,19.32" fill="#BD8F4E" stroke="#F7EEE1" stroke-width="0.06" stroke-opacity="0.45"/><polygon points="20.47,19.32 17.75,27.16 22.20,23.93" fill="#BD8F4E" stroke="#F7EEE1" stroke-width="0.06" stroke-opacity="0.45"/><polygon points="20.47,19.32 22.20,23.93 19.79,15.99" fill="#906D3E" stroke="#F7EEE1" stroke-width="0.06" stroke-opacity="0.45"/><polygon points="19.79,15.99 22.20,23.93 23.90,18.70" fill="#8A693B" stroke="#F7EEE1" stroke-width="0.06" stroke-opacity="0.45"/><polygon points="20.50,14.30 22.47,13.58 21.39,12.40" fill="#9E6F4B" stroke="#F7EEE1" stroke-width="0.06" stroke-opacity="0.45"/><polygon points="20.50,14.30 21.39,12.40 19.78,12.33" fill="#AA7751" stroke="#F7EEE1" stroke-width="0.06" stroke-opacity="0.45"/><polygon points="20.50,14.30 19.78,12.33 18.60,13.41" fill="#AD7B55" stroke="#F7EEE1" stroke-width="0.06" stroke-opacity="0.45"/><polygon points="20.50,14.30 18.60,13.41 18.53,15.02" fill="#99724C" stroke="#F7EEE1" stroke-width="0.06" stroke-opacity="0.45"/><polygon points="20.50,14.30 18.53,15.02 19.61,16.20" fill="#8F6A47" stroke="#F7EEE1" stroke-width="0.06" stroke-opacity="0.45"/><polygon points="20.50,14.30 19.61,16.20 21.22,16.27" fill="#D0B387" stroke="#F7EEE1" stroke-width="0.06" stroke-opacity="0.45"/><polygon points="20.50,14.30 21.22,16.27 22.40,15.19" fill="#CCAD7F" stroke="#F7EEE1" stroke-width="0.06" stroke-opacity="0.45"/><polygon points="20.50,14.30 22.40,15.19 22.47,13.58" fill="#846242" stroke="#F7EEE1" stroke-width="0.06" stroke-opacity="0.45"/><polygon points="22.47,13.58 23.74,13.28 21.39,12.40" fill="#856342" stroke="#F7EEE1" stroke-width="0.06" stroke-opacity="0.45"/><polygon points="21.39,12.40 23.74,13.28 22.07,11.28" fill="#6E4D34" stroke="#F7EEE1" stroke-width="0.06" stroke-opacity="0.45"/><polygon points="21.39,12.40 22.07,11.28 19.78,12.33" fill="#7A553A" stroke="#F7EEE1" stroke-width="0.06" stroke-opacity="0.45"/><polygon points="19.78,12.33 22.07,11.28 19.48,11.06" fill="#7F593C" stroke="#F7EEE1" stroke-width="0.06" stroke-opacity="0.45"/><polygon points="19.78,12.33 19.48,11.06 18.60,13.41" fill="#835B3E" stroke="#F7EEE1" stroke-width="0.06" stroke-opacity="0.45"/><polygon points="18.60,13.41 19.48,11.06 17.48,12.73" fill="#865D3F" stroke="#F7EEE1" stroke-width="0.06" stroke-opacity="0.45"/><polygon points="18.60,13.41 17.48,12.73 18.53,15.02" fill="#A27851" stroke="#F7EEE1" stroke-width="0.06" stroke-opacity="0.45"/><polygon points="18.53,15.02 17.48,12.73 17.26,15.32" fill="#9F764F" stroke="#F7EEE1" stroke-width="0.06" stroke-opacity="0.45"/><polygon points="18.53,15.02 17.26,15.32 19.61,16.20" fill="#926C49" stroke="#F7EEE1" stroke-width="0.06" stroke-opacity="0.45"/><polygon points="19.61,16.20 17.26,15.32 18.93,17.32" fill="#896644" stroke="#F7EEE1" stroke-width="0.06" stroke-opacity="0.45"/><polygon points="19.61,16.20 18.93,17.32 21.22,16.27" fill="#CAAA7A" stroke="#F7EEE1" stroke-width="0.06" stroke-opacity="0.45"/><polygon points="21.22,16.27 18.93,17.32 21.52,17.54" fill="#C39F67" stroke="#F7EEE1" stroke-width="0.06" stroke-opacity="0.45"/><polygon points="21.22,16.27 21.52,17.54 22.40,15.19" fill="#C29C64" stroke="#F7EEE1" stroke-width="0.06" stroke-opacity="0.45"/><polygon points="22.40,15.19 21.52,17.54 23.52,15.87" fill="#BD9558" stroke="#F7EEE1" stroke-width="0.06" stroke-opacity="0.45"/><polygon points="22.40,15.19 23.52,15.87 22.47,13.58" fill="#75573A" stroke="#F7EEE1" stroke-width="0.06" stroke-opacity="0.45"/><polygon points="22.47,13.58 23.52,15.87 23.74,13.28" fill="#75563A" stroke="#F7EEE1" stroke-width="0.06" stroke-opacity="0.45"/><polygon points="23.74,13.28 25.81,12.88 22.07,11.28" fill="#76583B" stroke="#F7EEE1" stroke-width="0.06" stroke-opacity="0.45"/><polygon points="22.07,11.28 25.81,12.88 23.25,9.54" fill="#896041" stroke="#F7EEE1" stroke-width="0.06" stroke-opacity="0.45"/><polygon points="22.07,11.28 23.25,9.54 19.48,11.06" fill="#A77650" stroke="#F7EEE1" stroke-width="0.06" stroke-opacity="0.45"/><polygon points="19.48,11.06 23.25,9.54 19.08,8.99" fill="#AE7C56" stroke="#F7EEE1" stroke-width="0.06" stroke-opacity="0.45"/><polygon points="19.48,11.06 19.08,8.99 17.48,12.73" fill="#B58764" stroke="#F7EEE1" stroke-width="0.06" stroke-opacity="0.45"/><polygon points="17.48,12.73 19.08,8.99 15.74,11.55" fill="#B68967" stroke="#F7EEE1" stroke-width="0.06" stroke-opacity="0.45"/><polygon points="17.48,12.73 15.74,11.55 17.26,15.32" fill="#B38460" stroke="#F7EEE1" stroke-width="0.06" stroke-opacity="0.45"/><polygon points="17.26,15.32 15.74,11.55 15.19,15.72" fill="#9F764F" stroke="#F7EEE1" stroke-width="0.06" stroke-opacity="0.45"/><polygon points="17.26,15.32 15.19,15.72 18.93,17.32" fill="#8E6A47" stroke="#F7EEE1" stroke-width="0.06" stroke-opacity="0.45"/><polygon points="18.93,17.32 15.19,15.72 17.75,19.06" fill="#7D5D3E" stroke="#F7EEE1" stroke-width="0.06" stroke-opacity="0.45"/><polygon points="18.93,17.32 17.75,19.06 21.52,17.54" fill="#BF985D" stroke="#F7EEE1" stroke-width="0.06" stroke-opacity="0.45"/><polygon points="21.52,17.54 17.75,19.06 21.92,19.61" fill="#B08545" stroke="#F7EEE1" stroke-width="0.06" stroke-opacity="0.45"/><polygon points="21.52,17.54 21.92,19.61 23.52,15.87" fill="#B08545" stroke="#F7EEE1" stroke-width="0.06" stroke-opacity="0.45"/><polygon points="23.52,15.87 21.92,19.61 25.26,17.05" fill="#B08545" stroke="#F7EEE1" stroke-width="0.06" stroke-opacity="0.45"/><polygon points="23.52,15.87 25.26,17.05 23.74,13.28" fill="#5F462F" stroke="#F7EEE1" stroke-width="0.06" stroke-opacity="0.45"/><polygon points="23.74,13.28 25.26,17.05 25.81,12.88" fill="#5F462F" stroke="#F7EEE1" stroke-width="0.06" stroke-opacity="0.45"/><path d="M 25.57,12.65 A 5.34 5.34 0 0 0 23.93,10.21" fill="none" stroke="#E4CBA0" stroke-width="0.42" stroke-opacity="0.85" stroke-linecap="round"/><polygon points="25.88,15.44 28.66,13.59 25.60,12.24" fill="#211D1A"/></svg>